<svg xmlns="http://www.w3.org/2000/svg" viewBox="0 0 512 512">
  <defs>
    <radialGradient id="bg" cx="45%" cy="40%" r="75%">
      <stop offset="0%" stop-color="#3b2a6e"/>
      <stop offset="55%" stop-color="#141033"/>
      <stop offset="100%" stop-color="#0a0a1e"/>
    </radialGradient>
    <linearGradient id="hull" x1="0" y1="0" x2="1" y2="0">
      <stop offset="0%" stop-color="#9aa7bd"/>
      <stop offset="45%" stop-color="#e8ecf4"/>
      <stop offset="55%" stop-color="#ffffff"/>
      <stop offset="100%" stop-color="#9aa7bd"/>
    </linearGradient>
    <radialGradient id="flame" cx="50%" cy="30%" r="70%">
      <stop offset="0%" stop-color="#ffdca0"/>
      <stop offset="60%" stop-color="#ffb35c"/>
      <stop offset="100%" stop-color="#ffb35c" stop-opacity="0"/>
    </radialGradient>
  </defs>
  <rect width="512" height="512" rx="96" fill="url(#bg)"/>
  <circle cx="120" cy="120" r="3" fill="#cdd6ff" opacity="0.9"/>
  <circle cx="400" cy="90" r="2.5" fill="#7de0ff" opacity="0.9"/>
  <circle cx="440" cy="300" r="2" fill="#cdd6ff" opacity="0.7"/>
  <circle cx="80" cy="330" r="2" fill="#ff5ad1" opacity="0.7"/>
  <circle cx="350" cy="430" r="2.5" fill="#cdd6ff" opacity="0.8"/>
  <ellipse cx="256" cy="392" rx="60" ry="72" fill="url(#flame)"/>
  <path d="M256 60 C 282 118 292 168 292 234 L 282 344 L 230 344 L 220 234 C 220 168 230 118 256 60 Z" fill="url(#hull)"/>
  <path d="M288 250 L 372 336 L 356 366 L 280 344 Z" fill="#9aa7bd"/>
  <path d="M224 250 L 140 336 L 156 366 L 232 344 Z" fill="#9aa7bd"/>
  <ellipse cx="256" cy="180" rx="17" ry="34" fill="#7de0ff"/>
  <ellipse cx="256" cy="168" rx="9" ry="16" fill="#bfffff"/>
  <rect x="234" y="344" width="18" height="22" rx="4" fill="#4c5568"/>
  <rect x="260" y="344" width="18" height="22" rx="4" fill="#4c5568"/>
</svg>
